<?xml version="1.0" encoding="UTF-8"?>
<svg id="Calque_1" data-name="Calque 1" xmlns="http://www.w3.org/2000/svg" xmlns:xlink="http://www.w3.org/1999/xlink" viewBox="0 0 1028 540.83">
  <defs>
    <style>
      .cls-1 {
        fill: #fff;
      }

      .cls-2 {
        fill: none;
      }

      .cls-3 {
        clip-path: url(#clippath);
      }
    </style>
    <clipPath id="clippath">
      <rect class="cls-2" width="1028" height="540.83"/>
    </clipPath>
  </defs>
  <g class="cls-3">
    <path class="cls-1" d="M174.43,435.79l8.51,2.7c-1.31,4.74-3.48,8.26-6.51,10.57-3.04,2.3-6.89,3.45-11.55,3.45-5.77,0-10.52-1.97-14.23-5.92-3.72-3.94-5.57-9.33-5.57-16.17,0-7.23,1.87-12.85,5.6-16.86,3.74-4,8.65-6,14.74-6,5.32,0,9.64,1.57,12.96,4.71,1.97,1.86,3.46,4.53,4.45,8.01l-8.69,2.08c-.51-2.25-1.59-4.03-3.22-5.33-1.63-1.31-3.61-1.96-5.94-1.96-3.22,0-5.84,1.15-7.85,3.47-2,2.31-3.01,6.06-3.01,11.24,0,5.5.99,9.41,2.96,11.74,1.98,2.33,4.55,3.5,7.71,3.5,2.33,0,4.34-.74,6.02-2.22,1.68-1.49,2.89-3.81,3.62-7"/>
    <path class="cls-1" d="M196.19,429.89l-7.56-1.36c.85-3.04,2.31-5.3,4.39-6.76,2.08-1.46,5.16-2.19,9.25-2.19,3.71,0,6.48.44,8.3,1.32,1.82.88,3.09,2,3.84,3.35.74,1.36,1.11,3.84,1.11,7.46l-.09,9.73c0,2.77.14,4.8.4,6.12.27,1.32.77,2.72,1.5,4.22h-8.24c-.22-.55-.48-1.37-.8-2.46-.14-.5-.24-.82-.3-.98-1.42,1.38-2.95,2.42-4.57,3.11-1.62.69-3.35,1.04-5.19,1.04-3.24,0-5.8-.88-7.67-2.64-1.87-1.76-2.8-3.98-2.8-6.67,0-1.78.43-3.36,1.28-4.76.85-1.4,2.04-2.46,3.57-3.21,1.53-.74,3.74-1.38,6.63-1.94,3.89-.73,6.59-1.41,8.1-2.05v-.83c0-1.6-.39-2.75-1.19-3.43-.79-.68-2.28-1.02-4.48-1.02-1.48,0-2.64.29-3.47.88-.83.58-1.51,1.6-2.02,3.07M207.34,436.65c-1.07.35-2.76.78-5.07,1.28-2.31.5-3.83.98-4.54,1.45-1.09.77-1.63,1.75-1.63,2.94s.44,2.17,1.31,3.02c.87.86,1.98,1.28,3.32,1.28,1.5,0,2.93-.5,4.3-1.48,1.01-.75,1.67-1.67,1.99-2.76.22-.71.33-2.06.33-4.06v-1.66Z"/>
    <path class="cls-1" d="M232,451.77h-8.33v-31.49h7.74v4.48c1.32-2.12,2.51-3.51,3.57-4.18,1.06-.67,2.26-1.01,3.6-1.01,1.9,0,3.73.52,5.48,1.57l-2.58,7.26c-1.41-.91-2.71-1.36-3.92-1.36s-2.15.32-2.96.96-1.45,1.81-1.91,3.49c-.47,1.68-.7,5.2-.7,10.55v9.73Z"/>
    <path class="cls-1" d="M248.15,451.77v-43.47h8.33v15.66c2.57-2.93,5.61-4.39,9.14-4.39,3.84,0,7.01,1.39,9.52,4.16,2.51,2.78,3.76,6.77,3.76,11.97s-1.28,9.52-3.84,12.43c-2.56,2.9-5.67,4.36-9.33,4.36-1.8,0-3.57-.45-5.32-1.35-1.75-.9-3.26-2.23-4.52-3.99v4.62h-7.74ZM256.43,435.34c0,3.26.51,5.68,1.54,7.23,1.45,2.22,3.36,3.32,5.75,3.32,1.83,0,3.4-.78,4.7-2.36,1.29-1.57,1.94-4.04,1.94-7.43,0-3.59-.65-6.19-1.95-7.79-1.31-1.59-2.98-2.39-5.01-2.39s-3.66.78-4.98,2.33c-1.32,1.55-1.99,3.91-1.99,7.07"/>
    <path class="cls-1" d="M283.99,435.58c0-2.77.68-5.45,2.05-8.03,1.36-2.59,3.3-4.57,5.79-5.93,2.5-1.36,5.29-2.04,8.38-2.04,4.76,0,8.67,1.55,11.71,4.64,3.04,3.09,4.57,7,4.57,11.72s-1.54,8.71-4.61,11.85c-3.07,3.13-6.94,4.7-11.61,4.7-2.89,0-5.64-.65-8.26-1.95-2.62-1.31-4.61-3.22-5.97-5.74-1.37-2.52-2.05-5.59-2.05-9.21M292.53,436.03c0,3.12.74,5.51,2.22,7.18,1.49,1.66,3.31,2.49,5.48,2.49s4-.83,5.47-2.49c1.47-1.67,2.21-4.07,2.21-7.23s-.74-5.46-2.21-7.12c-1.47-1.67-3.3-2.49-5.47-2.49s-4,.83-5.48,2.49c-1.48,1.66-2.22,4.05-2.22,7.17"/>
    <path class="cls-1" d="M351.72,451.77h-8.33v-16.07c0-3.4-.18-5.6-.53-6.6-.35-1-.93-1.77-1.73-2.33-.8-.55-1.77-.83-2.89-.83-1.45,0-2.74.39-3.89,1.19-1.15.79-1.93,1.84-2.36,3.14-.42,1.3-.64,3.71-.64,7.23v14.26h-8.33v-31.49h7.74v4.63c2.75-3.56,6.21-5.34,10.38-5.34,1.84,0,3.52.33,5.04.99,1.52.66,2.68,1.51,3.45,2.54.78,1.03,1.33,2.19,1.63,3.5.31,1.31.46,3.17.46,5.6v19.57Z"/>
    <polygon class="cls-1" points="379.35 451.77 379.35 408.3 409.15 408.3 409.15 415.66 388.12 415.66 388.12 425.94 406.27 425.94 406.27 433.3 388.12 433.3 388.12 451.77 379.35 451.77"/>
    <path class="cls-1" d="M415.14,408.3h8.33v7.71h-8.33v-7.71ZM415.14,420.28h8.33v31.49h-8.33v-31.49Z"/>
    <path class="cls-1" d="M431.7,451.77v-43.47h8.33v15.66c2.57-2.93,5.61-4.39,9.14-4.39,3.84,0,7.01,1.39,9.52,4.16,2.51,2.78,3.76,6.77,3.76,11.97s-1.28,9.52-3.84,12.43c-2.56,2.9-5.67,4.36-9.33,4.36-1.8,0-3.57-.45-5.32-1.35-1.75-.9-3.26-2.23-4.52-3.99v4.62h-7.74ZM439.97,435.34c0,3.26.51,5.68,1.54,7.23,1.45,2.22,3.36,3.32,5.75,3.32,1.83,0,3.4-.78,4.7-2.36,1.29-1.57,1.94-4.04,1.94-7.43,0-3.59-.65-6.19-1.95-7.79-1.31-1.59-2.98-2.39-5.01-2.39s-3.66.78-4.98,2.33c-1.32,1.55-1.99,3.91-1.99,7.07"/>
    <path class="cls-1" d="M487.99,441.75l8.3,1.4c-1.06,3.04-2.75,5.36-5.05,6.95-2.31,1.59-5.19,2.39-8.65,2.39-5.47,0-9.52-1.79-12.16-5.37-2.08-2.86-3.11-6.49-3.11-10.85,0-5.22,1.36-9.3,4.09-12.26,2.73-2.95,6.18-4.43,10.35-4.43,4.69,0,8.38,1.55,11.09,4.64,2.71,3.09,4.01,7.84,3.89,14.22h-20.88c.06,2.47.73,4.39,2.01,5.77,1.29,1.37,2.89,2.06,4.8,2.06,1.31,0,2.4-.35,3.29-1.06.89-.71,1.56-1.86,2.02-3.44M488.47,433.33c-.06-2.41-.68-4.25-1.87-5.5-1.19-1.25-2.63-1.88-4.33-1.88-1.82,0-3.32.66-4.51,1.99-1.19,1.32-1.77,3.12-1.75,5.39h12.46Z"/>
    <path class="cls-1" d="M511.66,451.77h-8.33v-31.49h7.74v4.48c1.32-2.12,2.51-3.51,3.57-4.18,1.06-.67,2.26-1.01,3.6-1.01,1.9,0,3.73.52,5.48,1.57l-2.58,7.26c-1.41-.91-2.71-1.36-3.92-1.36s-2.15.32-2.96.96-1.45,1.81-1.91,3.49c-.47,1.68-.7,5.2-.7,10.55v9.73Z"/>
    <polygon class="cls-1" points="546.46 451.77 546.46 408.3 555.24 408.3 555.24 425.41 572.44 425.41 572.44 408.3 581.22 408.3 581.22 451.77 572.44 451.77 572.44 432.76 555.24 432.76 555.24 451.77 546.46 451.77"/>
    <path class="cls-1" d="M588.37,435.58c0-2.77.68-5.45,2.05-8.03,1.36-2.59,3.3-4.57,5.79-5.93,2.5-1.36,5.29-2.04,8.38-2.04,4.76,0,8.67,1.55,11.71,4.64,3.04,3.09,4.57,7,4.57,11.72s-1.54,8.71-4.61,11.85c-3.07,3.13-6.94,4.7-11.61,4.7-2.89,0-5.64-.65-8.26-1.95-2.62-1.31-4.61-3.22-5.97-5.74-1.37-2.52-2.05-5.59-2.05-9.21M596.91,436.03c0,3.12.74,5.51,2.22,7.18,1.49,1.66,3.31,2.49,5.48,2.49s4-.83,5.47-2.49c1.47-1.67,2.21-4.07,2.21-7.23s-.74-5.46-2.21-7.12c-1.47-1.67-3.3-2.49-5.47-2.49s-4,.83-5.48,2.49c-1.48,1.66-2.22,4.05-2.22,7.17"/>
    <path class="cls-1" d="M627.14,420.28h7.68v4.3c2.75-3.34,6.02-5.01,9.82-5.01,2.01,0,3.76.41,5.25,1.24,1.48.83,2.69,2.09,3.65,3.76,1.38-1.68,2.88-2.94,4.48-3.76,1.6-.83,3.31-1.24,5.13-1.24,2.31,0,4.27.47,5.87,1.41,1.6.94,2.8,2.32,3.58,4.13.57,1.34.86,3.52.86,6.53v20.13h-8.33v-18c0-3.12-.29-5.14-.86-6.05-.77-1.19-1.96-1.78-3.56-1.78-1.17,0-2.27.35-3.29,1.06-1.03.71-1.77,1.76-2.23,3.13-.45,1.37-.68,3.54-.68,6.51v15.12h-8.33v-17.26c0-3.07-.15-5.04-.44-5.93s-.75-1.55-1.38-1.99c-.62-.43-1.47-.65-2.54-.65-1.28,0-2.44.34-3.47,1.04-1.02.69-1.76,1.69-2.21,3-.44,1.3-.67,3.47-.67,6.49v15.3h-8.33v-31.49Z"/>
    <path class="cls-1" d="M700.38,441.75l8.3,1.4c-1.06,3.04-2.75,5.36-5.05,6.95-2.31,1.59-5.19,2.39-8.65,2.39-5.47,0-9.52-1.79-12.16-5.37-2.08-2.86-3.11-6.49-3.11-10.85,0-5.22,1.36-9.3,4.09-12.26,2.73-2.95,6.18-4.43,10.35-4.43,4.68,0,8.38,1.55,11.09,4.64,2.71,3.09,4.01,7.84,3.88,14.22h-20.87c.06,2.47.73,4.39,2.01,5.77,1.29,1.37,2.89,2.06,4.8,2.06,1.31,0,2.4-.35,3.29-1.06.89-.71,1.56-1.86,2.02-3.44M700.86,433.33c-.06-2.41-.68-4.25-1.87-5.5-1.19-1.25-2.63-1.88-4.33-1.88-1.82,0-3.32.66-4.51,1.99-1.19,1.32-1.77,3.12-1.75,5.39h12.46Z"/>
    <polygon class="cls-1" points="734.92 451.77 734.92 408.3 748.06 408.3 755.94 437.96 763.74 408.3 776.91 408.3 776.91 451.77 768.75 451.77 768.75 417.55 760.12 451.77 751.67 451.77 743.08 417.55 743.08 451.77 734.92 451.77"/>
    <path class="cls-1" d="M792.23,429.89l-7.56-1.36c.85-3.04,2.31-5.3,4.39-6.76,2.08-1.46,5.16-2.19,9.25-2.19,3.71,0,6.48.44,8.3,1.32,1.82.88,3.09,2,3.84,3.35.74,1.36,1.11,3.84,1.11,7.46l-.09,9.73c0,2.77.14,4.8.4,6.12.27,1.32.77,2.72,1.5,4.22h-8.24c-.22-.55-.48-1.37-.8-2.46-.14-.5-.24-.82-.3-.98-1.42,1.38-2.95,2.42-4.57,3.11-1.62.69-3.35,1.04-5.19,1.04-3.25,0-5.8-.88-7.67-2.64-1.87-1.76-2.8-3.98-2.8-6.67,0-1.78.43-3.36,1.28-4.76.85-1.4,2.04-2.46,3.57-3.21,1.53-.74,3.74-1.38,6.63-1.94,3.89-.73,6.59-1.41,8.1-2.05v-.83c0-1.6-.39-2.75-1.19-3.43-.79-.68-2.28-1.02-4.48-1.02-1.48,0-2.64.29-3.47.88-.83.58-1.5,1.6-2.01,3.07M803.38,436.65c-1.07.35-2.76.78-5.07,1.28-2.31.5-3.83.98-4.54,1.45-1.09.77-1.63,1.75-1.63,2.94s.43,2.17,1.31,3.02c.87.86,1.98,1.28,3.32,1.28,1.5,0,2.93-.5,4.3-1.48,1.01-.75,1.67-1.67,1.99-2.76.22-.71.33-2.06.33-4.06v-1.66Z"/>
    <path class="cls-1" d="M848.78,451.77h-7.74v-4.62c-1.29,1.8-2.81,3.14-4.56,4.02-1.75.88-3.51,1.32-5.29,1.32-3.62,0-6.72-1.46-9.3-4.38-2.58-2.91-3.87-6.98-3.87-12.2s1.25-9.39,3.77-12.17c2.51-2.77,5.68-4.16,9.52-4.16,3.52,0,6.56,1.46,9.13,4.39v-15.66h8.33v43.47ZM826.55,435.34c0,3.36.47,5.79,1.4,7.3,1.34,2.17,3.22,3.26,5.63,3.26,1.92,0,3.55-.81,4.89-2.44s2.01-4.07,2.01-7.31c0-3.62-.65-6.22-1.95-7.81-1.31-1.59-2.98-2.39-5.01-2.39s-3.63.79-4.97,2.36c-1.33,1.58-2,3.92-2,7.04"/>
    <path class="cls-1" d="M875.88,441.75l8.3,1.4c-1.06,3.04-2.75,5.36-5.05,6.95-2.31,1.59-5.19,2.39-8.65,2.39-5.47,0-9.52-1.79-12.16-5.37-2.08-2.86-3.11-6.49-3.11-10.85,0-5.22,1.36-9.3,4.09-12.26,2.73-2.95,6.18-4.43,10.35-4.43,4.69,0,8.38,1.55,11.09,4.64,2.71,3.09,4.01,7.84,3.89,14.22h-20.88c.06,2.47.73,4.39,2.01,5.77,1.29,1.37,2.89,2.06,4.8,2.06,1.31,0,2.4-.35,3.29-1.06.89-.71,1.56-1.86,2.02-3.44M876.35,433.33c-.06-2.41-.68-4.25-1.87-5.5-1.19-1.25-2.63-1.88-4.33-1.88-1.82,0-3.32.66-4.51,1.99-1.19,1.32-1.77,3.12-1.75,5.39h12.46Z"/>
    <rect class="cls-1" x="53.42" y="433.11" width="77" height="7.42"/>
    <rect class="cls-1" x="898.86" y="433.11" width="77" height="7.42"/>
    <path class="cls-1" d="M682.96,99.16s51.16,13.81,74.18,24.9c0,0-55.6-17.23-71.46-21.49-3.07-.77-5.46-2.22-5.54-2.9-.08-.68,2.81-.51,2.81-.51"/>
    <path class="cls-1" d="M362.39,137.15l84.18-39.77c.26-.12.57-.1.82.06.53.37.47,1.16-.12,1.43l-37.87,17.48-47.01,20.79Z"/>
    <path class="cls-1" d="M876.35,137.62c3.84,3.07,4.86,4.26,7.67,4.26v2.9l-7.27,9.8,48.25,2.13c-.5-2.63-1.65-9.69-.75-14.66-27.09.77-31.61-5.7-34.25-7.97-1.06-.91-1.72-2.05-2.14-3.08l-11.25,1.68s-4.1,1.87-.26,4.94"/>
    <path class="cls-1" d="M902.01,138.81c7.15,1.74,17.39,2.17,22.61,2.27,1.63-.27,13.74-2.45,18.74-8.41,5.37-6.4,5.63-10.49,1.54-11-4.09-.51-52.44,7.42-52.44,7.42,0,0-1.66.66-2.98,1.33,1.73,3.15,4.95,6.55,12.53,8.39"/>
    <path class="cls-1" d="M581.15,180.13l.11-.06c-6.72.12-17.65.6-33.62,2.11,0,0-4.48.51-5.63,2.68-1.15,2.18.13,3.2.13,3.2l40.16.23-1.15-8.16Z"/>
    <path class="cls-1" d="M590.18,182.04c-.25-1.14-1.24-1.96-2.41-1.98-1.2-.03-2.99-.04-5.38-.01l1.31,8.25,2.57.02s3.45,0,4.22-1.28c.47-.79.07-3.23-.31-4.99"/>
    <path class="cls-1" d="M409.46,139.79s-12.28,0-17.01,2.17c-4.73,2.18-6.78,6.91-11.38,8.96-3.68,1.64-14.15,9.33-18.2,12.34,3.47.52,10.95,1.42,23.71,1.91,7.53-1.33,21.32-3.83,22.88-4.66,2.17-1.15,2.56-12.53,2.56-16.5s-2.56-4.22-2.56-4.22"/>
    <path class="cls-1" d="M947.46,210.95c.51-6.4-2.55-32.49-7.16-40.42-4.61-7.93-12.28-12.02-15.09-12.79l-49.54-1.7s-46.22-.69-52.36-1.88c-6.14-1.19-6.14,1.7-23.19.68-17.05-1.02-21.83-3.75-35.81-10.06-13.99-6.31-78.11-37.52-78.11-37.52,0,0-7.65-4.23-11.94-10.23-3.41-4.78-8.7-3.07-13.3-3.58-4.61-.51-38.37-4.94-68.56-5.11-30.19-.17-96.52.51-107.78,1.36-11.25.86-27.28,3.75-30.87,5.12l-3.58,1.36,5.46,1.37s-10.58,5.28-28.65,13.81c-18.07,8.53-73.84,40.42-89.71,50.99,0,0-28.48-2.22-36.15-5.97,0,0-3.75-1.02-7.34-.51-3.58.51-183.84,15.18-224.43,34.45,0,0-15.18,5.29-17.73,14.5-2.56,9.21-4.35,15.6-4.35,15.6h45.53s8.44-8.95,11.25-20.46l-2.3-8.7,437.94-3.58s-1.02-5.11,4.86-6.65c5.46-1.43,35.85-3.29,44.26-2.12,1.16.16,2.13.96,2.54,2.06.45,1.21.91,3.21,1.03,6.45,0,0,96.19-.51,182.39-.51s153.99,2.56,153.99,2.56c0,0,3.32.26,3.84,4.61.51,4.35,1.02,20.47,1.02,20.47h11.26s2.04,4.34,2.3,9.21c0,0,.25,2.81,3.58,1.79,0,0-3.84-8.19-3.32-14.58M100.36,201.36c-1.41,6.91-9.85,17.52-9.85,17.52l-35.94-.89s4.35-13.3,5.24-15.98c.89-2.69,3.45-3.84,3.45-3.84,16.5-8.57,30.82-6.9,30.82-6.9,0,0,7.67,3.2,6.27,10.1M152.67,180.63c-18.93,2.43-54.61,10.49-54.61,10.49l-1.79-1.02s47.9-10.55,57.11-11.7c67.44-8.43,131.17-11.58,131.17-11.58-50.91,3.97-112.94,11.39-131.87,13.81M449.11,170.32c-32.23-.85-67.4-4.3-67.4-4.3,0,0-12.84-.3-20.47-1.54-2.81-.25-9.08-2.05-9.08-2.05,65.06-42.84,102.58-59.64,126.79-64.25,24.22-4.6,108.47-2.73,108.47-2.73l16.37,70.61s-122.45,5.11-154.68,4.26M589.72,95.63s27.37-1.28,46.05,7.93c18.67,9.21,60.88,40.16,67.79,45.79,6.9,5.63,1.02,11.26,1.02,11.26-24.3,4.35-97.72,4.85-97.72,4.85l-17.14-69.83ZM689.48,165.46s35.3-3.32,80.06-4.09c44.77-.77,135.07-.51,135.07-.51l-215.13,4.6ZM933.01,178.46c.13-4.22-.38-9.47,2.05-8.19.97.51,1.9,2.44,2.67,4.56,1.38,3.84,2.01,7.89,1.99,11.97,0,1.03-.02,2.15-.06,3.3-.12,4.48-2.43,6.78-2.43,6.78.38,3.07,3.45,7.67,3.45,7.67-4.6-.38-7.8-21.87-7.67-26.09"/>
    <path class="cls-1" d="M48.89,370.23v-136.98h52.51c30.09,0,45.13,11.83,45.13,35.49,0,6.78-1.26,12.5-3.77,17.17-2.52,4.67-6.41,8.54-11.68,11.61,6.44,3.45,11.18,7.8,14.23,13.05,3.04,5.24,4.56,11.64,4.56,19.18,0,13.05-4.12,23.05-12.38,30.02-8.26,6.98-20.11,10.46-35.56,10.46h-53.04ZM98.94,285.81c5.38,0,9.24-.96,11.59-2.88,2.34-1.91,3.51-5.11,3.51-9.59s-1.29-7.67-3.86-9.59c-2.58-1.92-6.91-2.87-13-2.87h-16.51v24.94h18.27ZM99.12,342.6c6.44,0,11.12-1.25,14.05-3.74s4.39-6.36,4.39-11.61-1.38-8.83-4.13-11.13c-2.75-2.31-7.17-3.45-13.26-3.45h-19.49v29.93h18.44Z"/>
    <path class="cls-1" d="M249.7,370.23l-5.27-6.33c-10.07,6.27-21.66,9.4-34.77,9.4-14.4,0-25.81-3.65-34.24-10.94-8.43-7.29-12.64-17.14-12.64-29.55,0-16.5,8.31-29.42,24.93-38.75-7.26-9.84-10.89-19.31-10.89-28.39,0-6.91,1.67-12.98,5.01-18.23,3.34-5.24,7.84-9.27,13.52-12.09,5.68-2.81,12.09-4.22,19.23-4.22,10.65,0,19.23,2.98,25.73,8.92,6.5,5.95,9.75,13.78,9.75,23.5,0,14.32-8.02,26.22-24.06,35.68l19.32,23.98c2.22-6.52,3.34-14.32,3.34-23.41h26.52c0,17.65-4.04,32.88-12.12,45.66l19.84,24.75h-33.19ZM202.28,312.1c-5.74,4.73-8.6,10.49-8.6,17.26,0,5.63,1.85,10.08,5.53,13.34,3.68,3.26,8.75,4.89,15.19,4.89,5.74,0,10.47-1.02,14.23-3.07l-26.34-32.43ZM212.65,282.36c3.63-2.43,6.23-4.89,7.81-7.39,1.58-2.49,2.37-5.4,2.37-8.73s-.76-5.95-2.28-7.86c-1.52-1.92-3.69-2.88-6.5-2.88s-5.1,1-6.85,2.98c-1.76,1.99-2.63,4.57-2.63,7.77,0,2.3.59,4.64,1.76,7,1.17,2.37,3.27,5.41,6.32,9.11"/>
    <path class="cls-1" d="M296.18,370.23v-136.98h52.51c30.09,0,45.13,11.83,45.13,35.49,0,6.78-1.26,12.5-3.77,17.17-2.52,4.67-6.41,8.54-11.68,11.61,6.44,3.45,11.18,7.8,14.23,13.05,3.04,5.24,4.56,11.64,4.56,19.18,0,13.05-4.12,23.05-12.38,30.02-8.26,6.98-20.11,10.46-35.56,10.46h-53.04ZM346.23,285.81c5.38,0,9.24-.96,11.59-2.88,2.34-1.91,3.51-5.11,3.51-9.59s-1.29-7.67-3.86-9.59c-2.58-1.92-6.91-2.87-13-2.87h-16.51v24.94h18.27ZM346.4,342.6c6.44,0,11.12-1.25,14.05-3.74,2.93-2.49,4.39-6.36,4.39-11.61s-1.38-8.83-4.13-11.13c-2.75-2.31-7.17-3.45-13.26-3.45h-19.49v29.93h18.44Z"/>
    <path class="cls-1" d="M608.98,364.14c1.32,0,1.97.66,1.97,1.97s-.66,1.98-1.97,1.98h-24.97c-.96,0-1.61-.48-1.97-1.44v-10.06c-3.35,3.84-7.43,6.64-12.22,8.44-4.79,1.79-9.7,2.69-14.73,2.69-3.71,0-7.37-.54-10.96-1.62-3.59-1.07-6.74-2.63-9.43-4.67-2.69-2.04-4.88-4.58-6.55-7.63-1.68-3.05-2.51-6.62-2.51-10.69s1.07-7.31,3.23-10.06c2.16-2.76,4.91-5.12,8.26-7.1,3.35-1.97,7.16-3.53,11.41-4.67,4.25-1.14,8.47-2.04,12.67-2.69,4.19-.66,8.14-1.11,11.85-1.34,3.71-.24,6.71-.42,8.98-.54v-11.68c0-3.83-.48-6.94-1.44-9.34-.96-2.4-2.22-4.28-3.77-5.66-1.56-1.37-3.39-2.33-5.48-2.87-2.1-.53-4.22-.8-6.38-.8-4.79,0-8.35.12-10.69.35-2.33.24-3.39,1.2-3.14,2.87,0,.72.18,1.38.54,1.97.36.61.72,1.2,1.08,1.8.36.6.71,1.34,1.07,2.24.36.9.6,2.01.72,3.32.12.12.18.3.18.54v.71c0,2.76-.96,5.06-2.87,6.92-1.92,1.86-4.25,2.78-7,2.78-2.76-.12-5.06-1.1-6.92-2.96-1.86-1.86-2.78-4.16-2.78-6.91,0-.24.03-.42.09-.54.06-.12.09-.3.09-.54.12-1.56.6-3.3,1.44-5.21.83-1.91,2.36-3.71,4.58-5.39,2.21-1.68,5.21-3.08,8.98-4.22,3.77-1.14,8.71-1.7,14.82-1.7,4.07,0,8.42.48,13.02,1.43,4.61.96,8.83,2.52,12.67,4.67,3.83,2.15,7.03,4.94,9.61,8.35,2.58,3.41,3.86,7.58,3.86,12.48v49.04c0,3.84,1.55,5.75,4.67,5.75M582.03,320.13c-4.31.36-8.51,1.05-12.57,2.07-4.07,1.01-7.7,2.45-10.87,4.31-3.18,1.86-5.75,4.19-7.73,7-1.97,2.82-2.96,6.2-2.96,10.15,0,4.31.81,7.66,2.42,10.06,1.62,2.4,3.5,4.16,5.66,5.3,2.16,1.14,4.37,1.77,6.65,1.88,2.27.12,4.07.12,5.39,0,2.76-.47,5.33-1.64,7.72-3.5,2.4-1.86,4.49-3.92,6.29-6.2v-31.08Z"/>
    <path class="cls-1" d="M692.34,296.06v.9c0,2.4-.81,4.4-2.42,6.02-1.62,1.61-3.62,2.42-6.02,2.42s-4.4-.81-6.02-2.42c-1.61-1.62-2.42-3.62-2.42-6.02,0-2.27-.03-4.13-.09-5.57-.06-1.44-.27-2.54-.63-3.32-.35-.78-.96-1.32-1.79-1.62-.84-.29-2.04-.44-3.59-.44-3.83,0-7.36.84-10.6,2.51-3.23,1.68-5.93,4.07-8.08,7.18v54.97c0,4.92.45,8.39,1.35,10.42.89,2.04,2.72,3.05,5.48,3.05,1.32,0,1.97.66,1.97,1.98s-.66,1.97-1.97,1.97h-36.11c-1.32,0-1.97-.66-1.97-1.97s.66-1.98,1.97-1.98c2.75,0,4.61-1.01,5.57-3.05.96-2.03,1.43-5.39,1.43-10.06v-49.58c0-4.67-.39-8.02-1.16-10.06-.78-2.04-2.55-3.05-5.3-3.05-1.32,0-1.98-.66-1.98-1.97s.66-1.98,1.98-1.98h26.95c1.19,0,1.79.66,1.79,1.98v4.13c2.63-2.75,5.69-4.88,9.16-6.38,3.47-1.49,7.12-2.18,10.96-2.06,2.99,0,5.78.44,8.35,1.34,2.57.9,4.85,2.04,6.82,3.41,1.98,1.37,3.53,2.87,4.67,4.49,1.14,1.62,1.7,3.21,1.7,4.76"/>
    <path class="cls-1" d="M725.1,288.87c2.63-2.27,5.99-4.01,10.06-5.21,4.07-1.19,8.35-1.71,12.85-1.53,4.49.19,9.01,1.11,13.56,2.79,4.55,1.68,8.62,4.28,12.21,7.81,3.59,3.53,6.5,8.06,8.71,13.56,2.22,5.51,3.26,12.16,3.14,19.94,0,6.35-1.05,12.06-3.14,17.15-2.1,5.09-4.79,9.41-8.08,12.93-3.3,3.54-7.07,6.29-11.32,8.26-4.25,1.97-8.6,3.05-13.02,3.23-4.43.18-8.83-.57-13.2-2.24-4.38-1.68-8.3-4.37-11.77-8.08v8.62c0,.24-.06.42-.18.54-.24.96-.84,1.43-1.79,1.43h-23.18c-1.32,0-1.97-.66-1.97-1.97s.66-1.97,1.97-1.97c1.2,0,1.98-.51,2.33-1.53.36-1.02.54-2.85.54-5.48v-108.33c-.12-.96-.36-1.62-.72-1.97-.35-.36-1.07-.54-2.15-.54-1.32,0-1.97-.66-1.97-1.98s.66-1.97,1.97-1.97h23.18c.6,0,1.07.18,1.43.54.36.36.54.84.54,1.43v44.55ZM725.1,352.29c4.31,4.31,8.74,7.16,13.29,8.53,4.55,1.38,8.65,1.08,12.31-.9,3.65-1.97,6.67-5.78,9.07-11.41,2.4-5.63,3.59-13.29,3.59-22.99,0-7.55-.66-13.83-1.97-18.87-1.32-5.03-3.05-9.03-5.21-12.03-2.16-2.99-4.61-5.12-7.37-6.38-2.76-1.25-5.54-1.79-8.35-1.61s-5.57.96-8.26,2.33c-2.69,1.38-5.06,3.08-7.09,5.12v58.21Z"/>
    <path class="cls-1" d="M838.15,282.05c6.59,0,12.51,1.14,17.78,3.41,5.27,2.28,9.76,5.39,13.47,9.35,3.71,3.95,6.59,8.53,8.62,13.74,2.04,5.21,3.05,10.76,3.05,16.62s-.87,11.41-2.6,16.62c-1.74,5.21-4.37,9.76-7.9,13.65-3.53,3.89-7.99,6.98-13.38,9.25-5.39,2.28-11.74,3.41-19.04,3.41s-13.83-1.14-19.22-3.41c-5.39-2.27-9.82-5.36-13.29-9.25-3.48-3.89-6.05-8.47-7.72-13.74-1.68-5.27-2.51-10.84-2.51-16.71s.98-11.41,2.96-16.62c1.98-5.21,4.82-9.75,8.53-13.65,3.71-3.89,8.2-6.98,13.48-9.25,5.27-2.27,11.19-3.41,17.78-3.41M838.33,364.15c3.83,0,7.07-.99,9.7-2.96,2.63-1.97,4.76-4.7,6.38-8.17,1.61-3.48,2.75-7.57,3.41-12.3.66-4.73.98-9.91.98-15.54s-.48-10.83-1.43-15.63c-.96-4.79-2.33-8.92-4.13-12.4-1.8-3.47-3.95-6.2-6.47-8.17s-5.33-2.96-8.44-2.96-5.96.99-8.53,2.96c-2.58,1.97-4.76,4.7-6.56,8.17-1.79,3.48-3.17,7.58-4.13,12.31-.96,4.73-1.44,9.91-1.44,15.54s.3,10.84.9,15.63c.6,4.79,1.68,8.92,3.23,12.4,1.55,3.47,3.68,6.2,6.38,8.17,2.69,1.97,6.08,2.96,10.15,2.96"/>
    <path class="cls-1" d="M978.74,364.15c1.32,0,1.97.66,1.97,1.97s-.66,1.97-1.97,1.97h-32.7c-1.44,0-2.15-.65-2.15-1.97s.71-1.97,2.15-1.97c2.75,0,4.31-1.02,4.67-3.05s.54-5.39.54-10.06v-43.65c0-2.04-.18-4.28-.54-6.74-.36-2.45-1.05-4.82-2.06-7.09-1.02-2.28-2.51-4.16-4.49-5.66-1.97-1.5-4.58-2.24-7.81-2.24-3.83.12-7.34,1.07-10.51,2.87-3.17,1.79-5.78,4.25-7.81,7.36v54.79c0,4.91.18,8.38.54,10.42.36,2.04,1.91,3.05,4.67,3.05,1.32,0,1.98.66,1.98,1.97s-.66,1.97-1.98,1.97h-32.7c-1.32,0-1.97-.65-1.97-1.97s.66-1.97,1.97-1.97c2.76,0,4.31-1.02,4.67-3.05.35-2.04.53-5.39.53-10.06v-49.58c0-2.4.03-4.4.09-6.02s0-2.96-.18-4.04c-.17-1.08-.6-1.86-1.25-2.33-.66-.48-1.65-.73-2.96-.73h-.72c-1.32,0-1.97-.65-1.97-1.97,0-1.43.66-2.15,1.97-2.15h25.33c.48,0,.96.24,1.43.72.36.36.54.78.54,1.26v4.67c2.4-2.76,5.27-4.88,8.62-6.38,3.35-1.5,6.82-2.31,10.42-2.42,6.11,0,11.86.96,17.25,2.87,5.39,1.92,9.94,4.94,13.65,9.07,3.71,4.13,5.57,9.79,5.57,16.98v39.71c0,4.91.18,8.38.54,10.42.36,2.04,1.91,3.05,4.67,3.05"/>
    <path class="cls-1" d="M515.13,330.73h-.18c-1.08,0-1.74.6-1.97,1.79-.12,1.8-.57,4.43-1.35,7.9-.78,3.48-2.42,6.98-4.94,10.51-2.51,3.53-6.23,6.62-11.14,9.25-4.91,2.63-11.56,3.95-19.94,3.95-4.79,0-9.01-.87-12.66-2.6-3.66-1.74-6.77-3.98-9.34-6.74-2.57-2.76-4.7-5.93-6.37-9.52-1.68-3.59-3-7.25-3.95-10.96-2.27-8.62-3.29-18.51-3.05-29.65.11-11.13,1.37-21.07,3.77-29.82,1.08-3.71,2.49-7.34,4.22-10.87,1.74-3.53,3.86-6.71,6.38-9.52s5.51-5.06,8.98-6.74c3.47-1.68,7.54-2.51,12.21-2.51,7.66,0,13.9,1.11,18.68,3.32,4.79,2.22,8.53,4.85,11.23,7.9,2.69,3.05,4.55,6.14,5.57,9.25.12.35.23.7.33,1.04-1.11-.48-2.33-.75-3.62-.75-5.03,0-9.11,4.08-9.11,9.11s4.08,9.11,9.11,9.11,9.11-4.08,9.11-9.11c0-.73-.1-1.43-.26-2.11-2.24-10.82-6.72-16.6-7.63-17.68-.06-.07-.11-.13-.17-.2-.36-.36-.6-.66-.72-.9-2.99-3.59-7.09-6.65-12.3-9.16-5.21-2.51-11.95-3.77-20.21-3.77-10.54,0-19.49,1.88-26.86,5.65-7.36,3.77-13.33,8.69-17.87,14.73-4.55,6.05-7.88,12.79-9.97,20.21-2.09,7.43-3.14,14.85-3.14,22.28s.98,14.94,2.96,22.54c1.98,7.61,5.21,14.46,9.7,20.57,4.49,6.1,10.45,11.11,17.87,15,7.43,3.89,16.53,5.84,27.31,5.84,6.23,0,11.56-.69,15.99-2.06,4.43-1.38,8.17-3.17,11.23-5.39,3.05-2.22,5.48-4.67,7.28-7.36,1.79-2.7,3.17-5.36,4.13-7.99.96-2.64,1.62-5.06,1.98-7.28.35-2.21.53-3.98.53-5.3.12-.48-.06-.96-.53-1.44-.36-.35-.78-.53-1.26-.53"/>
  </g>
</svg>